<?xml version="1.0" encoding="UTF-8"?>
<!--
  TuPuesto Sticker · 01 — PRE-LAUNCH · v2
  ============================================
  Período: 15 Mayo → 19 Junio 2026
  Tamaño físico recomendado: 9 x 9 cm (imprimir con sangrado 2mm)
  Material: vinilo mate o adhesivo papel laminado

  Cambios v2:
  · Header centrado y agrandado
  · Logo central del QR removido (escaneo más limpio)
  · CTA "ANOTATE AL LANZAMIENTO" centrado verticalmente en la caja naranja

  IMPORTANTE: el QR de este SVG es un PLACEHOLDER visual.
  Antes de imprimir, reemplazar el grupo "qr-placeholder" por un QR real
  generado con la URL del waitlist (ej: tupuesto.app/anotate).
-->
<svg xmlns="http://www.w3.org/2000/svg" viewBox="0 0 900 900" width="900" height="900">
  <style>
    @import url('https://fonts.googleapis.com/css2?family=Inter:wght@400;700;900&amp;family=Anton&amp;display=swap');
    .display { font-family: 'Anton', Impact, sans-serif; letter-spacing: 0.04em; }
    .word { font-family: 'Inter', 'Helvetica Neue', sans-serif; font-weight: 900; letter-spacing: -0.02em; }
    .sub { font-family: 'Inter', sans-serif; font-weight: 700; letter-spacing: 0.25em; }
    .small { font-family: 'Inter', sans-serif; font-weight: 400; letter-spacing: 0.3em; }
  </style>

  <!-- Sticker background (rounded square) -->
  <rect x="0" y="0" width="900" height="900" fill="#FAF6EE" rx="40"/>

  <!-- HEADER ZONE — centrado horizontalmente, pictograma agrandado -->
  <!-- Pictograma centrado (idéntico al logo #04, scale 0.20) -->
  <g transform="translate(370, -13) scale(0.20)">
    <!-- Carrito relleno naranja -->
    <rect x="335" y="395" width="330" height="200" rx="6" fill="#F26B1F"/>

    <!-- Persona: cabeza + cuello + 2 piernas -->
    <g stroke="#1A1A1A" stroke-width="28" stroke-linecap="round" stroke-linejoin="round" fill="none">
      <circle cx="200" cy="280" r="48"/>
      <path d="M 200 328 L 200 355"/>
      <path d="M 200 505 L 145 675"/>
      <path d="M 220 505 L 280 675"/>
    </g>

    <!-- Delantal con banda + bolsillo -->
    <g fill="#FAF6EE" stroke="#1A1A1A" stroke-width="26" stroke-linecap="round" stroke-linejoin="round">
      <path d="M 178 360 L 244 360 L 258 510 L 162 510 Z"/>
      <path d="M 182 360 Q 210 330 240 360" fill="none"/>
      <path d="M 192 440 L 232 440 L 232 470 L 192 470 Z" fill="none" stroke-width="20"/>
    </g>

    <!-- Brazos empujando -->
    <g stroke="#1A1A1A" stroke-width="28" stroke-linecap="round" stroke-linejoin="round" fill="none">
      <path d="M 245 400 L 345 400"/>
    </g>

    <!-- Carrito detalles -->
    <g stroke="#1A1A1A" stroke-width="28" stroke-linecap="round" stroke-linejoin="round" fill="none">
      <rect x="335" y="395" width="330" height="200" rx="6"/>
      <line x1="535" y1="395" x2="535" y2="595"/>
      <path d="M 320 360 Q 500 180 680 360"/>
      <path d="M 405 308 L 405 360"/>
      <path d="M 500 270 L 500 360"/>
      <path d="M 595 308 L 595 360"/>
      <line x1="500" y1="270" x2="500" y2="395"/>
    </g>

    <!-- Productos -->
    <g fill="#FAF6EE" stroke="#1A1A1A" stroke-width="22" stroke-linecap="round" stroke-linejoin="round">
      <circle cx="385" cy="385" r="22"/>
      <circle cx="440" cy="375" r="22"/>
      <circle cx="565" cy="385" r="22"/>
      <circle cx="615" cy="375" r="22"/>
    </g>

    <!-- 2 Ruedas con centro charcoal -->
    <g>
      <circle cx="410" cy="625" r="50" fill="#FAF6EE" stroke="#1A1A1A" stroke-width="28"/>
      <circle cx="410" cy="625" r="14" fill="#1A1A1A"/>
      <circle cx="590" cy="625" r="50" fill="#FAF6EE" stroke="#1A1A1A" stroke-width="28"/>
      <circle cx="590" cy="625" r="14" fill="#1A1A1A"/>
    </g>
  </g>

  <!-- Wordmark centrado horizontalmente, agrandado -->
  <text x="450" y="170" class="word" font-size="68" fill="#1A1A1A" text-anchor="middle">TUPUESTO</text>
  <text x="450" y="200" class="small" font-size="14" fill="#1A1A1A" text-anchor="middle">ROSARIO · 2026</text>

  <!-- Línea divisoria -->
  <rect x="50" y="215" width="800" height="3" fill="#1A1A1A"/>

  <!-- QR CODE PLACEHOLDER (sin logo central, escaneo más limpio) -->
  <g id="qr-placeholder" transform="translate(225, 230)">
    <!-- Background del QR -->
    <rect x="0" y="0" width="450" height="450" fill="#FAF6EE"/>

    <!-- Finder patterns (3 esquinas) -->
    <rect x="0" y="0" width="84" height="84" fill="#1A1A1A"/>
    <rect x="12" y="12" width="60" height="60" fill="#FAF6EE"/>
    <rect x="24" y="24" width="36" height="36" fill="#1A1A1A"/>

    <rect x="366" y="0" width="84" height="84" fill="#1A1A1A"/>
    <rect x="378" y="12" width="60" height="60" fill="#FAF6EE"/>
    <rect x="390" y="24" width="36" height="36" fill="#1A1A1A"/>

    <rect x="0" y="366" width="84" height="84" fill="#1A1A1A"/>
    <rect x="12" y="378" width="60" height="60" fill="#FAF6EE"/>
    <rect x="24" y="390" width="36" height="36" fill="#1A1A1A"/>

    <!-- Timing patterns -->
    <g fill="#1A1A1A">
      <rect x="96" y="36" width="12" height="12"/>
      <rect x="120" y="36" width="12" height="12"/>
      <rect x="144" y="36" width="12" height="12"/>
      <rect x="168" y="36" width="12" height="12"/>
      <rect x="192" y="36" width="12" height="12"/>
      <rect x="216" y="36" width="12" height="12"/>
      <rect x="240" y="36" width="12" height="12"/>
      <rect x="264" y="36" width="12" height="12"/>
      <rect x="288" y="36" width="12" height="12"/>
      <rect x="312" y="36" width="12" height="12"/>
      <rect x="336" y="36" width="12" height="12"/>

      <rect x="36" y="96" width="12" height="12"/>
      <rect x="36" y="120" width="12" height="12"/>
      <rect x="36" y="144" width="12" height="12"/>
      <rect x="36" y="168" width="12" height="12"/>
      <rect x="36" y="192" width="12" height="12"/>
      <rect x="36" y="216" width="12" height="12"/>
      <rect x="36" y="240" width="12" height="12"/>
      <rect x="36" y="264" width="12" height="12"/>
      <rect x="36" y="288" width="12" height="12"/>
      <rect x="36" y="312" width="12" height="12"/>
      <rect x="36" y="336" width="12" height="12"/>
    </g>

    <!-- Data modules (pseudo-aleatorio) -->
    <g fill="#1A1A1A">
      <rect x="96" y="96" width="12" height="12"/>
      <rect x="120" y="96" width="12" height="12"/>
      <rect x="156" y="96" width="12" height="12"/>
      <rect x="192" y="96" width="12" height="12"/>
      <rect x="228" y="96" width="12" height="12"/>
      <rect x="252" y="96" width="12" height="12"/>
      <rect x="300" y="96" width="12" height="12"/>
      <rect x="336" y="96" width="12" height="12"/>
      <rect x="372" y="96" width="12" height="12"/>
      <rect x="396" y="96" width="12" height="12"/>

      <rect x="108" y="120" width="12" height="12"/>
      <rect x="144" y="120" width="12" height="12"/>
      <rect x="180" y="120" width="12" height="12"/>
      <rect x="216" y="120" width="12" height="12"/>
      <rect x="264" y="120" width="12" height="12"/>
      <rect x="288" y="120" width="12" height="12"/>
      <rect x="324" y="120" width="12" height="12"/>
      <rect x="372" y="120" width="12" height="12"/>
      <rect x="408" y="120" width="12" height="12"/>

      <rect x="96" y="144" width="12" height="12"/>
      <rect x="132" y="144" width="12" height="12"/>
      <rect x="168" y="144" width="12" height="12"/>
      <rect x="204" y="144" width="12" height="12"/>
      <rect x="252" y="144" width="12" height="12"/>
      <rect x="300" y="144" width="12" height="12"/>
      <rect x="348" y="144" width="12" height="12"/>
      <rect x="384" y="144" width="12" height="12"/>
      <rect x="420" y="144" width="12" height="12"/>

      <rect x="120" y="168" width="12" height="12"/>
      <rect x="156" y="168" width="12" height="12"/>
      <rect x="192" y="168" width="12" height="12"/>
      <rect x="240" y="168" width="12" height="12"/>
      <rect x="276" y="168" width="12" height="12"/>
      <rect x="312" y="168" width="12" height="12"/>
      <rect x="372" y="168" width="12" height="12"/>
      <rect x="396" y="168" width="12" height="12"/>
      <rect x="432" y="168" width="12" height="12"/>

      <rect x="120" y="360" width="12" height="12"/>
      <rect x="156" y="360" width="12" height="12"/>
      <rect x="204" y="360" width="12" height="12"/>
      <rect x="240" y="360" width="12" height="12"/>
      <rect x="288" y="360" width="12" height="12"/>
      <rect x="324" y="360" width="12" height="12"/>
      <rect x="372" y="360" width="12" height="12"/>
      <rect x="420" y="360" width="12" height="12"/>

      <rect x="108" y="384" width="12" height="12"/>
      <rect x="144" y="384" width="12" height="12"/>
      <rect x="180" y="384" width="12" height="12"/>
      <rect x="228" y="384" width="12" height="12"/>
      <rect x="276" y="384" width="12" height="12"/>
      <rect x="312" y="384" width="12" height="12"/>
      <rect x="348" y="384" width="12" height="12"/>
      <rect x="396" y="384" width="12" height="12"/>

      <rect x="96" y="408" width="12" height="12"/>
      <rect x="132" y="408" width="12" height="12"/>
      <rect x="180" y="408" width="12" height="12"/>
      <rect x="216" y="408" width="12" height="12"/>
      <rect x="252" y="408" width="12" height="12"/>
      <rect x="300" y="408" width="12" height="12"/>
      <rect x="336" y="408" width="12" height="12"/>
      <rect x="384" y="408" width="12" height="12"/>
      <rect x="420" y="408" width="12" height="12"/>

      <rect x="120" y="432" width="12" height="12"/>
      <rect x="168" y="432" width="12" height="12"/>
      <rect x="204" y="432" width="12" height="12"/>
      <rect x="252" y="432" width="12" height="12"/>
      <rect x="288" y="432" width="12" height="12"/>
      <rect x="336" y="432" width="12" height="12"/>
      <rect x="372" y="432" width="12" height="12"/>
      <rect x="408" y="432" width="12" height="12"/>

      <rect x="396" y="192" width="12" height="12"/>
      <rect x="408" y="216" width="12" height="12"/>
      <rect x="396" y="252" width="12" height="12"/>
      <rect x="420" y="288" width="12" height="12"/>
      <rect x="396" y="324" width="12" height="12"/>

      <rect x="252" y="192" width="12" height="12"/>
      <rect x="288" y="216" width="12" height="12"/>
      <rect x="312" y="240" width="12" height="12"/>
      <rect x="156" y="288" width="12" height="12"/>
      <rect x="192" y="312" width="12" height="12"/>
      <rect x="252" y="336" width="12" height="12"/>
      <rect x="108" y="276" width="12" height="12"/>
      <rect x="144" y="252" width="12" height="12"/>
      <rect x="156" y="216" width="12" height="12"/>
      <rect x="180" y="276" width="12" height="12"/>
      <rect x="216" y="252" width="12" height="12"/>
      <rect x="276" y="276" width="12" height="12"/>
      <rect x="312" y="300" width="12" height="12"/>
      <rect x="348" y="276" width="12" height="12"/>
      <rect x="324" y="192" width="12" height="12"/>
      <rect x="120" y="324" width="12" height="12"/>
      <rect x="84" y="312" width="12" height="12"/>
      <rect x="60" y="276" width="12" height="12"/>
      <rect x="312" y="408" width="12" height="12"/>
      <rect x="396" y="396" width="12" height="12"/>

      <!-- Módulos adicionales en el área central (antes ocupada por el logo) -->
      <rect x="192" y="216" width="12" height="12"/>
      <rect x="228" y="228" width="12" height="12"/>
      <rect x="264" y="252" width="12" height="12"/>
      <rect x="204" y="240" width="12" height="12"/>
      <rect x="240" y="276" width="12" height="12"/>
      <rect x="276" y="252" width="12" height="12"/>
      <rect x="216" y="300" width="12" height="12"/>
      <rect x="252" y="288" width="12" height="12"/>
      <rect x="288" y="324" width="12" height="12"/>
      <rect x="324" y="252" width="12" height="12"/>
      <rect x="300" y="276" width="12" height="12"/>
      <rect x="336" y="300" width="12" height="12"/>
      <rect x="168" y="252" width="12" height="12"/>
      <rect x="204" y="288" width="12" height="12"/>
      <rect x="276" y="300" width="12" height="12"/>
      <rect x="228" y="324" width="12" height="12"/>
      <rect x="264" y="324" width="12" height="12"/>
      <rect x="288" y="252" width="12" height="12"/>
      <rect x="180" y="312" width="12" height="12"/>
      <rect x="156" y="324" width="12" height="12"/>
    </g>
  </g>

  <!-- FOOTER ZONE: caja CTA naranja + textos -->
  <!-- Caja CTA (centro vertical en y=740) -->
  <rect x="50" y="700" width="800" height="80" fill="#F26B1F" rx="8"/>
  <!-- CTA centrado vertical y horizontal dentro de la caja -->
  <text x="450" y="740" class="display" font-size="50" fill="#FAF6EE" text-anchor="middle" dominant-baseline="middle">ANOTATE AL LANZAMIENTO</text>

  <!-- Detalles del evento -->
  <text x="450" y="820" class="sub" font-size="22" fill="#1A1A1A" text-anchor="middle">SÁBADO 20 JUN · 16HS · COSTANERA</text>

  <!-- Tagline final -->
  <text x="450" y="860" class="small" font-size="13" fill="#1A1A1A" text-anchor="middle">DÍA DE LA BANDERA · APP GRATIS · SIN COMISIÓN</text>
</svg>
