<?xml version="1.0" encoding="UTF-8"?>
<!--
  TuPuesto Sticker · 02 — POST-LAUNCH · v2
  ============================================
  Período: A partir del 20 Junio 2026
  Tamaño físico recomendado: 9 x 9 cm
  Material: vinilo mate o adhesivo papel laminado

  Cambios v2:
  · Header centrado y agrandado
  · Logo central del QR removido (escaneo más limpio)
  · CTA "BAJATE LA APP" centrado verticalmente en la caja naranja

  IMPORTANTE: el QR es un PLACEHOLDER visual.
  Reemplazar antes de imprimir con QR real que apunte a la URL de descarga.
-->
<svg xmlns="http://www.w3.org/2000/svg" viewBox="0 0 900 900" width="900" height="900">
  <style>
    @import url('https://fonts.googleapis.com/css2?family=Inter:wght@400;700;900&amp;family=Anton&amp;display=swap');
    .display { font-family: 'Anton', Impact, sans-serif; letter-spacing: 0.04em; }
    .word { font-family: 'Inter', 'Helvetica Neue', sans-serif; font-weight: 900; letter-spacing: -0.02em; }
    .sub { font-family: 'Inter', sans-serif; font-weight: 700; letter-spacing: 0.25em; }
    .small { font-family: 'Inter', sans-serif; font-weight: 400; letter-spacing: 0.3em; }
  </style>

  <rect x="0" y="0" width="900" height="900" fill="#FAF6EE" rx="40"/>

  <!-- HEADER ZONE — centrado horizontalmente, pictograma agrandado -->
  <g transform="translate(370, -13) scale(0.20)">
    <rect x="335" y="395" width="330" height="200" rx="6" fill="#F26B1F"/>
    <g stroke="#1A1A1A" stroke-width="28" stroke-linecap="round" stroke-linejoin="round" fill="none">
      <circle cx="200" cy="280" r="48"/>
      <path d="M 200 328 L 200 355"/>
      <path d="M 200 505 L 145 675"/>
      <path d="M 220 505 L 280 675"/>
    </g>
    <g fill="#FAF6EE" stroke="#1A1A1A" stroke-width="26" stroke-linecap="round" stroke-linejoin="round">
      <path d="M 178 360 L 244 360 L 258 510 L 162 510 Z"/>
      <path d="M 182 360 Q 210 330 240 360" fill="none"/>
      <path d="M 192 440 L 232 440 L 232 470 L 192 470 Z" fill="none" stroke-width="20"/>
    </g>
    <g stroke="#1A1A1A" stroke-width="28" stroke-linecap="round" stroke-linejoin="round" fill="none">
      <path d="M 245 400 L 345 400"/>
      <rect x="335" y="395" width="330" height="200" rx="6"/>
      <line x1="535" y1="395" x2="535" y2="595"/>
      <path d="M 320 360 Q 500 180 680 360"/>
      <path d="M 405 308 L 405 360"/>
      <path d="M 500 270 L 500 360"/>
      <path d="M 595 308 L 595 360"/>
      <line x1="500" y1="270" x2="500" y2="395"/>
    </g>
    <g fill="#FAF6EE" stroke="#1A1A1A" stroke-width="22" stroke-linecap="round" stroke-linejoin="round">
      <circle cx="385" cy="385" r="22"/>
      <circle cx="440" cy="375" r="22"/>
      <circle cx="565" cy="385" r="22"/>
      <circle cx="615" cy="375" r="22"/>
    </g>
    <g>
      <circle cx="410" cy="625" r="50" fill="#FAF6EE" stroke="#1A1A1A" stroke-width="28"/>
      <circle cx="410" cy="625" r="14" fill="#1A1A1A"/>
      <circle cx="590" cy="625" r="50" fill="#FAF6EE" stroke="#1A1A1A" stroke-width="28"/>
      <circle cx="590" cy="625" r="14" fill="#1A1A1A"/>
    </g>
  </g>

  <!-- Wordmark centrado horizontalmente, agrandado -->
  <text x="450" y="170" class="word" font-size="68" fill="#1A1A1A" text-anchor="middle">TUPUESTO</text>
  <text x="450" y="200" class="small" font-size="14" fill="#1A1A1A" text-anchor="middle">EL MAPA DE LOS CARRITOS</text>

  <!-- Línea divisoria -->
  <rect x="50" y="215" width="800" height="3" fill="#1A1A1A"/>

  <!-- QR CODE PLACEHOLDER (sin logo central) -->
  <g id="qr-placeholder" transform="translate(225, 230)">
    <rect x="0" y="0" width="450" height="450" fill="#FAF6EE"/>

    <!-- Finder patterns -->
    <rect x="0" y="0" width="84" height="84" fill="#1A1A1A"/>
    <rect x="12" y="12" width="60" height="60" fill="#FAF6EE"/>
    <rect x="24" y="24" width="36" height="36" fill="#1A1A1A"/>

    <rect x="366" y="0" width="84" height="84" fill="#1A1A1A"/>
    <rect x="378" y="12" width="60" height="60" fill="#FAF6EE"/>
    <rect x="390" y="24" width="36" height="36" fill="#1A1A1A"/>

    <rect x="0" y="366" width="84" height="84" fill="#1A1A1A"/>
    <rect x="12" y="378" width="60" height="60" fill="#FAF6EE"/>
    <rect x="24" y="390" width="36" height="36" fill="#1A1A1A"/>

    <!-- Timing patterns -->
    <g fill="#1A1A1A">
      <rect x="96" y="36" width="12" height="12"/>
      <rect x="120" y="36" width="12" height="12"/>
      <rect x="144" y="36" width="12" height="12"/>
      <rect x="168" y="36" width="12" height="12"/>
      <rect x="192" y="36" width="12" height="12"/>
      <rect x="216" y="36" width="12" height="12"/>
      <rect x="240" y="36" width="12" height="12"/>
      <rect x="264" y="36" width="12" height="12"/>
      <rect x="288" y="36" width="12" height="12"/>
      <rect x="312" y="36" width="12" height="12"/>
      <rect x="336" y="36" width="12" height="12"/>

      <rect x="36" y="96" width="12" height="12"/>
      <rect x="36" y="120" width="12" height="12"/>
      <rect x="36" y="144" width="12" height="12"/>
      <rect x="36" y="168" width="12" height="12"/>
      <rect x="36" y="192" width="12" height="12"/>
      <rect x="36" y="216" width="12" height="12"/>
      <rect x="36" y="240" width="12" height="12"/>
      <rect x="36" y="264" width="12" height="12"/>
      <rect x="36" y="288" width="12" height="12"/>
      <rect x="36" y="312" width="12" height="12"/>
      <rect x="36" y="336" width="12" height="12"/>
    </g>

    <!-- Data modules (patrón distinto al del pre-launch) -->
    <g fill="#1A1A1A">
      <rect x="96" y="96" width="12" height="12"/>
      <rect x="132" y="96" width="12" height="12"/>
      <rect x="168" y="96" width="12" height="12"/>
      <rect x="204" y="96" width="12" height="12"/>
      <rect x="252" y="96" width="12" height="12"/>
      <rect x="288" y="96" width="12" height="12"/>
      <rect x="324" y="96" width="12" height="12"/>
      <rect x="372" y="96" width="12" height="12"/>
      <rect x="408" y="96" width="12" height="12"/>

      <rect x="108" y="120" width="12" height="12"/>
      <rect x="156" y="120" width="12" height="12"/>
      <rect x="192" y="120" width="12" height="12"/>
      <rect x="228" y="120" width="12" height="12"/>
      <rect x="264" y="120" width="12" height="12"/>
      <rect x="312" y="120" width="12" height="12"/>
      <rect x="348" y="120" width="12" height="12"/>
      <rect x="384" y="120" width="12" height="12"/>
      <rect x="420" y="120" width="12" height="12"/>

      <rect x="120" y="144" width="12" height="12"/>
      <rect x="156" y="144" width="12" height="12"/>
      <rect x="204" y="144" width="12" height="12"/>
      <rect x="252" y="144" width="12" height="12"/>
      <rect x="300" y="144" width="12" height="12"/>
      <rect x="336" y="144" width="12" height="12"/>
      <rect x="372" y="144" width="12" height="12"/>
      <rect x="408" y="144" width="12" height="12"/>

      <rect x="96" y="168" width="12" height="12"/>
      <rect x="144" y="168" width="12" height="12"/>
      <rect x="180" y="168" width="12" height="12"/>
      <rect x="216" y="168" width="12" height="12"/>
      <rect x="252" y="168" width="12" height="12"/>
      <rect x="288" y="168" width="12" height="12"/>
      <rect x="336" y="168" width="12" height="12"/>
      <rect x="384" y="168" width="12" height="12"/>
      <rect x="420" y="168" width="12" height="12"/>

      <rect x="108" y="360" width="12" height="12"/>
      <rect x="156" y="360" width="12" height="12"/>
      <rect x="192" y="360" width="12" height="12"/>
      <rect x="240" y="360" width="12" height="12"/>
      <rect x="276" y="360" width="12" height="12"/>
      <rect x="312" y="360" width="12" height="12"/>
      <rect x="360" y="360" width="12" height="12"/>
      <rect x="408" y="360" width="12" height="12"/>

      <rect x="120" y="384" width="12" height="12"/>
      <rect x="156" y="384" width="12" height="12"/>
      <rect x="192" y="384" width="12" height="12"/>
      <rect x="240" y="384" width="12" height="12"/>
      <rect x="288" y="384" width="12" height="12"/>
      <rect x="324" y="384" width="12" height="12"/>
      <rect x="372" y="384" width="12" height="12"/>
      <rect x="408" y="384" width="12" height="12"/>

      <rect x="108" y="408" width="12" height="12"/>
      <rect x="144" y="408" width="12" height="12"/>
      <rect x="192" y="408" width="12" height="12"/>
      <rect x="228" y="408" width="12" height="12"/>
      <rect x="264" y="408" width="12" height="12"/>
      <rect x="312" y="408" width="12" height="12"/>
      <rect x="360" y="408" width="12" height="12"/>
      <rect x="396" y="408" width="12" height="12"/>

      <rect x="132" y="432" width="12" height="12"/>
      <rect x="180" y="432" width="12" height="12"/>
      <rect x="216" y="432" width="12" height="12"/>
      <rect x="264" y="432" width="12" height="12"/>
      <rect x="300" y="432" width="12" height="12"/>
      <rect x="348" y="432" width="12" height="12"/>
      <rect x="384" y="432" width="12" height="12"/>
      <rect x="420" y="432" width="12" height="12"/>

      <rect x="408" y="192" width="12" height="12"/>
      <rect x="384" y="216" width="12" height="12"/>
      <rect x="420" y="252" width="12" height="12"/>
      <rect x="396" y="288" width="12" height="12"/>
      <rect x="432" y="324" width="12" height="12"/>

      <rect x="240" y="192" width="12" height="12"/>
      <rect x="276" y="216" width="12" height="12"/>
      <rect x="324" y="240" width="12" height="12"/>
      <rect x="168" y="288" width="12" height="12"/>
      <rect x="204" y="312" width="12" height="12"/>
      <rect x="264" y="336" width="12" height="12"/>
      <rect x="96" y="276" width="12" height="12"/>
      <rect x="132" y="252" width="12" height="12"/>
      <rect x="168" y="216" width="12" height="12"/>
      <rect x="192" y="276" width="12" height="12"/>
      <rect x="228" y="252" width="12" height="12"/>
      <rect x="288" y="276" width="12" height="12"/>
      <rect x="324" y="300" width="12" height="12"/>
      <rect x="360" y="276" width="12" height="12"/>
      <rect x="336" y="192" width="12" height="12"/>
      <rect x="108" y="324" width="12" height="12"/>
      <rect x="72" y="312" width="12" height="12"/>
      <rect x="84" y="276" width="12" height="12"/>
      <rect x="324" y="408" width="12" height="12"/>
      <rect x="384" y="396" width="12" height="12"/>

      <!-- Módulos en área central (antes ocupada por logo) -->
      <rect x="204" y="216" width="12" height="12"/>
      <rect x="240" y="228" width="12" height="12"/>
      <rect x="252" y="252" width="12" height="12"/>
      <rect x="216" y="240" width="12" height="12"/>
      <rect x="252" y="276" width="12" height="12"/>
      <rect x="288" y="252" width="12" height="12"/>
      <rect x="216" y="300" width="12" height="12"/>
      <rect x="240" y="288" width="12" height="12"/>
      <rect x="300" y="324" width="12" height="12"/>
      <rect x="312" y="252" width="12" height="12"/>
      <rect x="288" y="276" width="12" height="12"/>
      <rect x="336" y="300" width="12" height="12"/>
      <rect x="180" y="252" width="12" height="12"/>
      <rect x="216" y="288" width="12" height="12"/>
      <rect x="264" y="300" width="12" height="12"/>
      <rect x="240" y="324" width="12" height="12"/>
      <rect x="276" y="324" width="12" height="12"/>
      <rect x="300" y="252" width="12" height="12"/>
      <rect x="180" y="312" width="12" height="12"/>
      <rect x="168" y="324" width="12" height="12"/>
    </g>
  </g>

  <!-- FOOTER ZONE: caja CTA naranja + textos -->
  <rect x="50" y="700" width="800" height="80" fill="#F26B1F" rx="8"/>
  <!-- CTA centrado vertical y horizontal -->
  <text x="450" y="740" class="display" font-size="58" fill="#FAF6EE" text-anchor="middle" dominant-baseline="middle">BAJATE LA APP</text>

  <text x="450" y="820" class="sub" font-size="22" fill="#1A1A1A" text-anchor="middle">ESCANEÁ Y ENCONTRAME EN VIVO</text>

  <text x="450" y="860" class="small" font-size="13" fill="#1A1A1A" text-anchor="middle">EL MAPA DE LOS CARRITOS DE ROSARIO · GRATIS</text>
</svg>
